<?xml version="1.0" encoding="UTF-8"?>
<svg xmlns="http://www.w3.org/2000/svg" xmlns:xlink="http://www.w3.org/1999/xlink" width="344.711pt" height="213.445pt" viewBox="0 0 344.711 213.445" version="1.2">
<g id="surface1">
<path style="fill:none;stroke-width:0.99628;stroke-linecap:butt;stroke-linejoin:miter;stroke:rgb(0%,0%,0%);stroke-opacity:1;stroke-miterlimit:10;" d="M 0.000600672 -0.000841486 L 28.346009 -0.000841486 L 85.039954 28.347694 L 141.733899 113.387048 " transform="matrix(1.2491,0,0,-1.2491,54.99925,177.538011)"/>
<path style=" stroke:none;fill-rule:nonzero;fill:rgb(84.999084%,84.999084%,84.999084%);fill-opacity:1;" d="M 55 177.539062 L 90.40625 177.539062 L 161.222656 142.128906 L 232.039062 35.90625 L 55 35.90625 "/>
<path style="fill:none;stroke-width:0.3985;stroke-linecap:butt;stroke-linejoin:miter;stroke:rgb(0%,0%,0%);stroke-opacity:1;stroke-miterlimit:10;" d="M 28.346009 2.835576 L 28.346009 -2.834131 " transform="matrix(1.2491,0,0,-1.2491,54.99925,177.538011)"/>
<path style="fill:none;stroke-width:0.3985;stroke-linecap:butt;stroke-linejoin:miter;stroke:rgb(0%,0%,0%);stroke-opacity:1;stroke-miterlimit:10;" d="M 56.694545 2.835576 L 56.694545 -2.834131 " transform="matrix(1.2491,0,0,-1.2491,54.99925,177.538011)"/>
<path style="fill:none;stroke-width:0.3985;stroke-linecap:butt;stroke-linejoin:miter;stroke:rgb(0%,0%,0%);stroke-opacity:1;stroke-miterlimit:10;" d="M 85.039954 2.835576 L 85.039954 -2.834131 " transform="matrix(1.2491,0,0,-1.2491,54.99925,177.538011)"/>
<path style="fill:none;stroke-width:0.3985;stroke-linecap:butt;stroke-linejoin:miter;stroke:rgb(0%,0%,0%);stroke-opacity:1;stroke-miterlimit:10;" d="M 113.38849 2.835576 L 113.38849 -2.834131 " transform="matrix(1.2491,0,0,-1.2491,54.99925,177.538011)"/>
<path style="fill:none;stroke-width:0.3985;stroke-linecap:butt;stroke-linejoin:miter;stroke:rgb(0%,0%,0%);stroke-opacity:1;stroke-miterlimit:10;" d="M 2.833891 28.347694 L -2.835817 28.347694 " transform="matrix(1.2491,0,0,-1.2491,54.99925,177.538011)"/>
<path style="fill:none;stroke-width:0.3985;stroke-linecap:butt;stroke-linejoin:miter;stroke:rgb(0%,0%,0%);stroke-opacity:1;stroke-miterlimit:10;" d="M 2.833891 56.693103 L -2.835817 56.693103 " transform="matrix(1.2491,0,0,-1.2491,54.99925,177.538011)"/>
<path style="fill:none;stroke-width:0.3985;stroke-linecap:butt;stroke-linejoin:miter;stroke:rgb(0%,0%,0%);stroke-opacity:1;stroke-miterlimit:10;" d="M 2.833891 85.041639 L -2.835817 85.041639 " transform="matrix(1.2491,0,0,-1.2491,54.99925,177.538011)"/>
<path style=" stroke:none;fill-rule:nonzero;fill:rgb(0%,0%,0%);fill-opacity:1;" d="M 129.355469 159.835938 C 129.355469 157.878906 127.769531 156.292969 125.816406 156.292969 C 123.859375 156.292969 122.273438 157.878906 122.273438 159.835938 C 122.273438 161.789062 123.859375 163.375 125.816406 163.375 C 127.769531 163.375 129.355469 161.789062 129.355469 159.835938 Z M 129.355469 159.835938 "/>
<path style=" stroke:none;fill-rule:nonzero;fill:rgb(0%,0%,0%);fill-opacity:1;" d="M 200.171875 89.019531 C 200.171875 87.0625 198.585938 85.476562 196.632812 85.476562 C 194.675781 85.476562 193.089844 87.0625 193.089844 89.019531 C 193.089844 90.972656 194.675781 92.558594 196.632812 92.558594 C 198.585938 92.558594 200.171875 90.972656 200.171875 89.019531 Z M 200.171875 89.019531 "/>
<path style="fill:none;stroke-width:0.3985;stroke-linecap:butt;stroke-linejoin:miter;stroke:rgb(0%,0%,0%);stroke-opacity:1;stroke-dasharray:2.98883,2.98883;stroke-miterlimit:10;" d="M 56.694545 14.171863 L 113.38849 70.865808 " transform="matrix(1.2491,0,0,-1.2491,54.99925,177.538011)"/>
<path style="fill:none;stroke-width:0.3985;stroke-linecap:butt;stroke-linejoin:miter;stroke:rgb(0%,0%,0%);stroke-opacity:1;stroke-miterlimit:10;" d="M 0.000600672 112.389455 L 0.000600672 -2.834131 " transform="matrix(1.2491,0,0,-1.2491,54.99925,177.538011)"/>
<path style="fill-rule:nonzero;fill:rgb(0%,0%,0%);fill-opacity:1;stroke-width:0.3985;stroke-linecap:butt;stroke-linejoin:round;stroke:rgb(0%,0%,0%);stroke-opacity:1;stroke-miterlimit:10;" d="M 0.795924 -0.000600672 C -0.198542 0.199543 -1.196136 0.596704 -2.390746 1.294081 C -1.196136 0.399688 -1.196136 -0.397762 -2.390746 -1.295283 C -1.196136 -0.597906 -0.198542 -0.200745 0.795924 -0.000600672 Z M 0.795924 -0.000600672 " transform="matrix(0,-1.2491,-1.2491,0,54.99925,37.150438)"/>
<path style="fill:none;stroke-width:0.3985;stroke-linecap:butt;stroke-linejoin:miter;stroke:rgb(0%,0%,0%);stroke-opacity:1;stroke-miterlimit:10;" d="M 0.000600672 -0.000841486 L 140.736305 -0.000841486 " transform="matrix(1.2491,0,0,-1.2491,54.99925,177.538011)"/>
<path style="fill-rule:nonzero;fill:rgb(0%,0%,0%);fill-opacity:1;stroke-width:0.3985;stroke-linecap:butt;stroke-linejoin:round;stroke:rgb(0%,0%,0%);stroke-opacity:1;stroke-miterlimit:10;" d="M 0.795975 -0.000841486 C -0.198491 0.199303 -1.196085 0.596464 -2.390695 1.293841 C -1.196085 0.399447 -1.196085 -0.398002 -2.390695 -1.295524 C -1.196085 -0.598147 -0.198491 -0.197858 0.795975 -0.000841486 Z M 0.795975 -0.000841486 " transform="matrix(1.2491,0,0,-1.2491,230.794811,177.538011)"/>
</g>
</svg>
