<?xml version="1.0" encoding="UTF-8"?>
<svg xmlns="http://www.w3.org/2000/svg" xmlns:xlink="http://www.w3.org/1999/xlink" width="344.711pt" height="248.177pt" viewBox="0 0 344.711 248.177" version="1.2">
<g id="surface1">
<path style="fill:none;stroke-width:0.99628;stroke-linecap:butt;stroke-linejoin:miter;stroke:rgb(0%,0%,0%);stroke-opacity:1;stroke-miterlimit:10;" d="M -56.693773 113.386794 L -51.968569 95.278885 L -47.246051 78.743356 L -42.520847 63.782895 L -37.795642 50.397502 L -33.073125 38.587178 L -28.34792 28.349234 L -23.625403 19.689046 L -18.900198 12.601239 L -14.174993 7.0885 L -9.452476 3.150829 L -4.727271 0.788226 L -0.00475404 0.000692206 L 4.720451 0.785539 L 9.445656 3.145453 L 14.168173 7.083124 L 18.893378 12.593175 L 23.618583 19.678295 L 28.3411 28.335794 L 33.066304 38.571051 L 37.788821 50.378687 L 42.514026 63.761392 L 47.239231 78.719165 L 51.961748 95.252006 L 56.686953 113.359916 " transform="matrix(1.45331,0,0,-1.45331,143.858472,206.481475)"/>
<path style=" stroke:none;fill-rule:nonzero;fill:rgb(84.999084%,84.999084%,84.999084%);fill-opacity:1;" d="M 61.464844 41.695312 L 68.332031 68.011719 L 75.195312 92.042969 L 82.0625 113.785156 L 88.929688 133.238281 L 95.792969 150.402344 L 102.660156 165.28125 L 109.523438 177.867188 L 116.390625 188.167969 L 123.257812 196.179688 L 130.121094 201.902344 L 136.988281 205.335938 L 143.851562 206.480469 L 150.71875 205.339844 L 157.585938 201.910156 L 164.449219 196.1875 L 171.316406 188.179688 L 178.183594 177.882812 L 185.046875 165.300781 L 191.914062 150.425781 L 198.777344 133.265625 L 205.644531 113.816406 L 212.511719 92.078125 L 219.375 68.050781 L 226.242188 41.734375 "/>
<path style="fill:none;stroke-width:0.3985;stroke-linecap:butt;stroke-linejoin:miter;stroke:rgb(0%,0%,0%);stroke-opacity:1;stroke-miterlimit:10;" d="M 28.346475 2.833665 L 28.346475 -2.834968 " transform="matrix(1.45331,0,0,-1.45331,143.858472,206.481475)"/>
<path style="fill:none;stroke-width:0.3985;stroke-linecap:butt;stroke-linejoin:miter;stroke:rgb(0%,0%,0%);stroke-opacity:1;stroke-miterlimit:10;" d="M -28.34792 2.833665 L -28.34792 -2.834968 " transform="matrix(1.45331,0,0,-1.45331,143.858472,206.481475)"/>
<path style="fill:none;stroke-width:0.3985;stroke-linecap:butt;stroke-linejoin:miter;stroke:rgb(0%,0%,0%);stroke-opacity:1;stroke-miterlimit:10;" d="M 2.833594 28.346546 L -2.835039 28.346546 " transform="matrix(1.45331,0,0,-1.45331,143.858472,206.481475)"/>
<path style="fill:none;stroke-width:0.3985;stroke-linecap:butt;stroke-linejoin:miter;stroke:rgb(0%,0%,0%);stroke-opacity:1;stroke-miterlimit:10;" d="M 2.833594 56.692399 L -2.835039 56.692399 " transform="matrix(1.45331,0,0,-1.45331,143.858472,206.481475)"/>
<path style="fill:none;stroke-width:0.3985;stroke-linecap:butt;stroke-linejoin:miter;stroke:rgb(0%,0%,0%);stroke-opacity:1;stroke-miterlimit:10;" d="M 2.833594 85.040941 L -2.835039 85.040941 " transform="matrix(1.45331,0,0,-1.45331,143.858472,206.481475)"/>
<path style="fill:none;stroke-width:0.3985;stroke-linecap:butt;stroke-linejoin:miter;stroke:rgb(0%,0%,0%);stroke-opacity:1;stroke-miterlimit:10;" d="M 0.000621615 112.392297 L 0.000621615 -2.834968 " transform="matrix(1.45331,0,0,-1.45331,143.858472,206.481475)"/>
<path style="fill-rule:nonzero;fill:rgb(0%,0%,0%);fill-opacity:1;stroke-width:0.3985;stroke-linecap:butt;stroke-linejoin:round;stroke:rgb(0%,0%,0%);stroke-opacity:1;stroke-miterlimit:10;" d="M 0.796915 -0.000621615 C -0.20027 0.198278 -1.194767 0.598764 -2.390851 1.294912 C -1.194767 0.397177 -1.194767 -0.39842 -2.390851 -1.296156 C -1.194767 -0.59732 -0.20027 -0.199521 0.796915 -0.000621615 Z M 0.796915 -0.000621615 " transform="matrix(0,-1.45331,-1.45331,0,143.858472,43.14254)"/>
<path style="fill:none;stroke-width:0.3985;stroke-linecap:butt;stroke-linejoin:miter;stroke:rgb(0%,0%,0%);stroke-opacity:1;stroke-miterlimit:10;" d="M 0.000621615 0.000692206 L 55.697832 0.000692206 " transform="matrix(1.45331,0,0,-1.45331,143.858472,206.481475)"/>
<path style="fill-rule:nonzero;fill:rgb(0%,0%,0%);fill-opacity:1;stroke-width:0.3985;stroke-linecap:butt;stroke-linejoin:round;stroke:rgb(0%,0%,0%);stroke-opacity:1;stroke-miterlimit:10;" d="M 0.796069 0.000692206 C -0.198428 0.199592 -1.195613 0.59739 -2.391697 1.296226 C -1.195613 0.398491 -1.195613 -0.399794 -2.391697 -1.294842 C -1.195613 -0.598694 -0.198428 -0.198207 0.796069 0.000692206 Z M 0.796069 0.000692206 " transform="matrix(1.45331,0,0,-1.45331,224.804002,206.481475)"/>
<path style="fill:none;stroke-width:0.3985;stroke-linecap:butt;stroke-linejoin:miter;stroke:rgb(0%,0%,0%);stroke-opacity:1;stroke-miterlimit:10;" d="M 0.000621615 0.000692206 L -55.696589 0.000692206 " transform="matrix(1.45331,0,0,-1.45331,143.858472,206.481475)"/>
<path style="fill-rule:nonzero;fill:rgb(0%,0%,0%);fill-opacity:1;stroke-width:0.3985;stroke-linecap:butt;stroke-linejoin:round;stroke:rgb(0%,0%,0%);stroke-opacity:1;stroke-miterlimit:10;" d="M 0.797514 -0.000692206 C -0.199671 0.198207 -1.194168 0.598694 -2.390252 1.294842 C -1.194168 0.399794 -1.194168 -0.398491 -2.390252 -1.296226 C -1.194168 -0.59739 -0.199671 -0.199592 0.797514 -0.000692206 Z M 0.797514 -0.000692206 " transform="matrix(-1.45331,0,0,1.45331,62.912941,206.481475)"/>
<path style=" stroke:none;fill-rule:nonzero;fill:rgb(0%,0%,0%);fill-opacity:1;" d="M 106.78125 165.285156 C 106.78125 163.007812 104.9375 161.164062 102.660156 161.164062 C 100.386719 161.164062 98.542969 163.007812 98.542969 165.285156 C 98.542969 167.558594 100.386719 169.40625 102.660156 169.40625 C 104.9375 169.40625 106.78125 167.558594 106.78125 165.285156 Z M 106.78125 165.285156 "/>
<path style=" stroke:none;fill-rule:nonzero;fill:rgb(0%,0%,0%);fill-opacity:1;" d="M 209.773438 113.789062 C 209.773438 111.511719 207.929688 109.667969 205.652344 109.667969 C 203.378906 109.667969 201.535156 111.511719 201.535156 113.789062 C 201.535156 116.0625 203.378906 117.910156 205.652344 117.910156 C 207.929688 117.910156 209.773438 116.0625 209.773438 113.789062 Z M 209.773438 113.789062 "/>
<path style="fill:none;stroke-width:0.3985;stroke-linecap:butt;stroke-linejoin:miter;stroke:rgb(0%,0%,0%);stroke-opacity:1;stroke-dasharray:2.98883,2.98883;stroke-miterlimit:10;" d="M -28.34792 28.346546 L 42.519402 63.780207 " transform="matrix(1.45331,0,0,-1.45331,143.858472,206.481475)"/>
</g>
</svg>
